<svg width="100" height="100" viewBox="0 0 100 100" fill="none" xmlns="http://www.w3.org/2000/svg">
<rect width="100" height="100" rx="5" fill="#FE6A60"/>
<path d="M18.7338 28.7389C28.3635 16.5592 43.2784 13.1633 49.6477 13C58.981 13.8333 78.9477 19.7 84.1477 36.5C90.5477 52.5 89.8143 63.1667 88.6477 66.5C87.481 70.5 84.0477 79.3 79.6477 82.5C76.3497 84.8985 73.9694 85.7614 72.633 85.973C71.9826 86.076 71.3167 86.0034 70.6585 85.9838C68.1002 85.9079 63.4816 85.5456 59.6477 84.5C56.1824 83.5549 52.6965 83.3748 50.5577 83.4224C49.6202 83.4432 48.7089 83.6797 47.8313 84.0099C44.1591 85.3914 38.1213 87.3534 35.6477 87C32.1477 86.5 22.1477 84 19.1477 81.5C17.9034 80.4631 17.0534 79.6567 16.5 79.0757C16.3797 78.9742 16.2784 78.8566 16.1816 78.7304C15.8755 78.3857 15.7092 78.1549 15.6477 78.0362C10.5681 72.519 5.12829 56.8716 17.7274 30.3741C18.001 29.7986 18.3386 29.2388 18.7338 28.7389Z" fill="#D9D9D9"/>
<path d="M16.5 79.0757C16.1718 78.7988 15.9844 78.4019 15.6477 78.0362M15.6477 78.0362C10.5681 72.519 5.12829 56.8716 17.7274 30.3741C18.001 29.7986 18.3386 29.2388 18.7338 28.7389C28.3635 16.5592 43.2784 13.1633 49.6477 13C58.981 13.8333 78.9477 19.7 84.1477 36.5C90.5477 52.5 89.8143 63.1667 88.6477 66.5C87.481 70.5 84.0477 79.3 79.6477 82.5C76.3497 84.8985 73.9694 85.7614 72.633 85.973C71.9826 86.076 71.3167 86.0034 70.6585 85.9838C68.1002 85.9079 63.4816 85.5456 59.6477 84.5C56.1824 83.5549 52.6965 83.3748 50.5577 83.4224C49.6202 83.4432 48.7089 83.6797 47.8313 84.0099C44.1591 85.3914 38.1213 87.3534 35.6477 87C32.1477 86.5 22.1477 84 19.1477 81.5C16.7477 79.5 15.8143 78.3575 15.6477 78.0362Z" stroke="black" stroke-width="2" stroke-linecap="round"/>
<ellipse cx="36.5738" cy="37.854" rx="6.42616" ry="8.35401" fill="black"/>
<ellipse cx="39.5971" cy="33.9983" rx="0.642616" ry="1.28523" fill="#D9D9D9"/>
<ellipse cx="64.4262" cy="38.354" rx="6.42616" ry="8.35401" fill="black"/>
<ellipse cx="68.7347" cy="34.4983" rx="0.642616" ry="1.28523" fill="#D9D9D9"/>
<path d="M43 56H41C41 56 39.1513 69.5205 48.4927 69.5205C55.2202 69.5205 57.889 64.8456 58.7027 60.5459C59.1836 58.0049 56.9604 56 54.3743 56H43Z" fill="black"/>
<path d="M41 56H54.3743C56.9604 56 59.1836 58.0049 58.7027 60.5459C57.889 64.8456 55.2202 69.5205 48.4927 69.5205C39.1513 69.5205 41 56 41 56ZM41 56H43" stroke="black" stroke-width="0.5" stroke-linecap="round"/>
<path d="M50.4989 68.0486C50.2738 68.571 48.448 69.1446 46.4675 68.2914C44.487 67.4382 43.1018 65.4813 43.3268 64.9589C43.5519 64.4366 46.6032 64.4923 48.5837 65.3455C50.5642 66.1987 50.7239 67.5263 50.4989 68.0486Z" fill="#D9D9D9"/>
<path d="M26.4154 28.2716L29.5369 25.8283C32.8224 23.2567 33.5087 19.196 30.3336 16.4893C23.3303 10.5191 10.8998 2.98297 10.0876 11.0521C9.6015 15.8811 11.2048 21.232 13.2691 25.7664C15.5879 30.8597 22.0086 31.721 26.4154 28.2716Z" fill="#B1B1B1" stroke="black" stroke-width="2" stroke-linecap="round"/>
<path d="M72.5089 28.5572L69.3575 26.0504C66.128 23.4814 65.4399 19.4544 68.5513 16.7435C75.5326 10.661 88.0958 2.87256 88.9124 11.118C89.3973 16.0137 87.8029 21.4373 85.7457 26.0383C83.4365 31.203 76.9364 32.0791 72.5089 28.5572Z" fill="#F8F8F8" stroke="black" stroke-width="2" stroke-linecap="round"/>
<path d="M80.5 27C81.8333 26.3333 84.6 23.6 85 18" stroke="black" stroke-width="0.5" stroke-linecap="round"/>
<path d="M29 21.5C29.1667 20.6667 28.4 18.4 24 16" stroke="black" stroke-width="0.5" stroke-linecap="round"/>
<path d="M8.99999 44.5C5.99999 50.6667 2.39999 66.5 12 80.5" stroke="black" stroke-width="0.5" stroke-linecap="round"/>
<path d="M4.5 50.5C2.5 55 2.5 71 7 77.5" stroke="black" stroke-width="0.5" stroke-linecap="round"/>
</svg>
